<svg width="253" height="72" viewBox="0 0 253 72" fill="none" xmlns="http://www.w3.org/2000/svg">
<path d="M74.8673 16.0816C49.051 16.0816 34.0775 58.3099 0 58.3099V71H253V1C182.78 1 159.545 44.5994 137.343 44.5994C115.141 44.5994 100.684 16.0816 74.8673 16.0816Z" fill="#4D81FF" fill-opacity="0.3"/>
<path d="M0 57.0702C24.2179 57.0702 47.4053 42.6404 60.2872 42.6404C73.169 42.6404 84.5051 50.1328 99.4481 50.1328C114.391 50.1328 144.277 28.2105 165.919 28.2105C187.56 28.2105 209.202 42.6404 253 42.6404" stroke="#80A5FF" stroke-width="2"/>
<path d="M60.2872 43.4649C47.4053 43.4649 24.2179 57.8948 0 57.8948V71.5H253V43.4649C209.202 43.4649 187.56 29.0351 165.919 29.0351C144.277 29.0351 114.391 50.9573 99.4481 50.9573C84.5051 50.9573 73.169 43.4649 60.2872 43.4649Z" fill="#A5BFFF"/>
<path d="M1 59C34.9429 59 49.8571 16.2632 75.5714 16.2632C101.286 16.2632 115.686 45.1244 137.8 45.1244C159.914 45.1244 183.057 1 253 1" stroke="#4D81FF" stroke-width="2"/>
</svg>
